<svg height="512" viewBox="0 0 58 58" width="512" xmlns="http://www.w3.org/2000/svg"><g id="Page-1" fill="none" fill-rule="evenodd"><g id="005---Power-Supply" fill-rule="nonzero"><path id="Shape" d="m55 53c-.5522847 0-1-.4477153-1-1v-6h-42c-1.1045695 0-2-.8954305-2-2v-4c0-.5522847.4477153-1 1-1s1 .4477153 1 1v4h42c1.1045695 0 2 .8954305 2 2v6c0 .5522847-.4477153 1-1 1z" fill="#3f5c6c"/><rect id="Rectangle-path" fill="#95a5a5" height="40" rx="2" width="58"/><circle id="Oval" cx="20" cy="20" fill="#2c3e50" r="16"/><g fill="#d1d4d1"><path id="Shape" d="m12.506 11.632c-.424813.0001993-.8033866-.2680233-.9440546-.6688708-.1406679-.4008474-.0127245-.8468203.3190546-1.1121292 1.4582042-1.16914809 3.1518678-2.00932804 4.965-2.463.5312793-.12440954 1.0642111.20003965 1.1976422.7291253.1334311.52908564-.1819034 1.06746069-.7086422 1.2098747-1.5339933.38446805-2.9667253 1.0960583-4.2 2.086-.1784826.1427293-.4004685.2200185-.629.219z"/><path id="Shape" d="m8.162 19.027c-.05428632-.0003524-.10845807-.0050339-.162-.014-.5448154-.0903202-.91327367-.6051769-.823-1.15.26591276-1.6111529.83751423-3.1565813 1.684-4.553.28608351-.4724796.90102039-.6235835 1.3735-.3375.4724796.2860835.6235835.9010204.3375 1.3735-.71546678 1.1788912-1.19913573 2.4836094-1.425 3.844-.07966739.4822244-.4962397.8362051-.985.837z"/><path id="Shape" d="m12.239 19.06c-.0805689-.0005719-.1607893-.0106414-.239-.03-.5357071-.1342174-.8611901-.677286-.727-1.213.80285-3.226732 3.322268-5.74615 6.549-6.549.3490085-.093636.7213845.0082979.9740445.2666339.25266.2583361.3462971.6328845.2449318.979727-.1013654.3468424-.3819637.6120198-.7339763.6936391-2.5107939.6233269-4.4722245 2.5820648-5.099 5.092-.1102028.4457609-.5098195.7591857-.969.76z"/><path id="Shape" d="m16.421 19.211c-.3466605-.0005308-.6683168-.1805616-.8500464-.4757702-.1817296-.2952087-.1976048-.6634774-.0419536-.9732298.4871744-.9643366 1.2704455-1.7472572 2.235-2.234.3193954-.1607695.7002985-.1389313.9992267.0572885.2989282.1962199.4704673.5370107.45.8940001-.0204672.3569893-.2298313.6759419-.5492267.8367114-.5804998.2928029-1.051629.7642825-1.344 1.345-.1709052.3391794-.5192025.5522646-.899.55z"/><path id="Shape" d="m17.091 32.854c-.0825722-.0001721-.1648259-.010244-.245-.03-1.8133583-.4535833-3.5071077-1.2941469-4.965-2.464-.2845872-.2214418-.4279157-.5789485-.3751141-.9356533.0528015-.3567048.2935548-.6573575.6300904-.7868569.3365356-.1294995.7167274-.0677875.9950237.1615102 1.2331423.9899324 2.6659475 1.7012178 4.2 2.085.4897554.1227443.8111846.5913178.7493732 1.0924224s-.4874708.8775246-.9923732.8775776z"/><path id="Shape" d="m9.718 27.383c-.35038152.0005671-.6755026-.1822898-.857-.482-.84768638-1.3957649-1.42032626-2.9409082-1.687-4.552-.0905747-.5448289.27767109-1.0599253.8225-1.1505s1.0599253.2776711 1.1505.8225c.22553002 1.3604794.70922185 2.6652593 1.425 3.844.1868726.3085845.1930498.6939006.0161648 1.0083167-.1768849.3144161-.5094079.5091854-.8701648.5096833z"/><path id="Shape" d="m18.061 28.974c-.082246-.0001164-.1641754-.0101897-.244-.03-3.2250766-.8026037-5.7439333-3.3195373-6.549-6.544-.093636-.3490085.0082979-.7213845.2666339-.9740445.2583361-.25266.6328845-.3462971.979727-.2449318.3468424.1013654.6120198.3819637.6936391.7339763.6272421 2.5057357 2.5854038 4.4612056 5.092 5.085.4914067.12099.8149582.5900301.7535355 1.0923709-.0614227.5023409-.4884543.8796049-.9945355.8786291z"/><path id="Shape" d="m18.211 24.789c-.155207-.0001658-.308245-.0364567-.447-.106-.9647634-.486454-1.7481143-1.2694544-2.235-2.234-.2485281-.4934664-.0499664-1.0949719.4435-1.3435s1.0949719-.0499664 1.3435.4435c.2915083.5828241.7626981 1.056468 1.344 1.351.4146141.2078014.6319449.6734049.5249657 1.1246716-.1069793.4512668-.510192.7697615-.9739657.7693284z"/><path id="Shape" d="m27.494 11.632c-.2271603.0001065-.4475878-.0771313-.625-.219-1.2332747-.9899417-2.6660067-1.70153195-4.2-2.086-.5267388-.14241401-.8420733-.68078906-.7086422-1.2098747.1334311-.52908565.6663629-.85353484 1.1976422-.7291253 1.8131322.45367196 3.5067958 1.29385191 4.965 2.463.3317791.2653089.4597225.7112818.3190546 1.1121292-.140668.4008475-.5192416.6690701-.9440546.6688708z"/><path id="Shape" d="m31.838 19.027c-.4887603-.0007949-.9053326-.3547756-.985-.837-.2258643-1.3603906-.7095332-2.6651088-1.425-3.844-.2860835-.4724796-.1349796-1.0874165.3375-1.3735.4724796-.2860834 1.0874165-.1349796 1.3735.3375.8475378 1.3961978 1.4201621 2.9416384 1.687 4.553.0432938.2620784-.0194631.5306133-.1744249.7463591-.1549618.2157459-.3893941.3609731-.6515751.4036409-.0535419.0089661-.1077137.0136476-.162.014z"/><path id="Shape" d="m27.761 19.06c-.4585975-.0005854-.8580197-.3130332-.969-.758-.6249412-2.5088658-2.5833798-4.4680736-5.092-5.094-.3520126-.0816193-.6326109-.3467967-.7339763-.6936391-.1013653-.3468425-.0077282-.7213909.2449318-.979727.25266-.258336.625036-.3602699.9740445-.2666339 3.226732.80285 5.74615 3.322268 6.549 6.549.1341901.535714-.1912929 1.0787826-.727 1.213-.0804849.0199126-.1630885.0299862-.246.03z"/><path id="Shape" d="m23.579 19.211c-.3783589.0007455-.7247389-.2121137-.895-.55-.292371-.5807175-.7635002-1.0521971-1.344-1.345-.3193954-.1607695-.5287595-.4797221-.5492267-.8367114-.0204673-.3569894.1510718-.6977802.45-.8940001.2989282-.1962198.6798313-.218058.9992267-.0572885.9645545.4867428 1.7478256 1.2696634 2.235 2.234.1556512.3097524.139776.6780211-.0419536.9732298-.1817296.2952086-.5033859.4752394-.8500464.4757702z"/><path id="Shape" d="m22.909 32.854c-.5049024-.000053-.9305618-.376473-.9923732-.8775776s.2596178-.9696781.7493732-1.0924224c1.5340525-.3837822 2.9668577-1.0950676 4.2-2.085.2782963-.2292977.6584881-.2910097.9950237-.1615102.3365356.1294994.5772889.4301521.6300904.7868569.0528016.3567048-.0905269.7142115-.3751141.9356533-1.4578923 1.1698531-3.1516417 2.0104167-4.965 2.464-.0791993.0195195-.1604318.0295896-.242.03z"/><path id="Shape" d="m30.282 27.383c-.3607569-.0004979-.6932799-.1952672-.8701648-.5096833-.176885-.3144161-.1707078-.6997322.0161648-1.0083167.7157781-1.1787407 1.19947-2.4835206 1.425-3.844.0905747-.5448289.6056711-.9130747 1.1505-.8225s.9130747.6056711.8225 1.1505c-.2667967 1.6107458-.8394325 3.1555387-1.687 4.551-.1812511.3000938-.5064174.4833556-.857.483z"/><path id="Shape" d="m21.939 28.974c-.5106441.0065392-.9441724-.3727382-1.0055549-.8797218s.2691049-.9787635.7665549-1.0942782c2.5094694-.6245085 4.4689989-2.5836532 5.094-5.093.0816193-.3520126.3467967-.6326109.6936391-.7339763.3468425-.1013653.7213909-.0077282.979727.2449318.258336.25266.3602699.625036.2666339.9740445-.8034531 3.226391-3.322609 5.7455469-6.549 6.549-.080349.0209828-.1629617.032065-.246.033z"/><path id="Shape" d="m21.789 24.789c-.4598885-.0040617-.8577101-.3212714-.9640631-.7687118-.106353-.4474405.1061884-.9097286.5150631-1.1202882.5802198-.2927172 1.0512828-.7637802 1.344-1.344.2485281-.4934664.8500336-.6920281 1.3435-.4435s.6920281.8500336.4435 1.3435c-.4868857.9645456-1.2702366 1.747546-2.235 2.234-.1393393.0671234-.292349.1010115-.447.099z"/></g><circle id="Oval" cx="4" cy="4" fill="#393f4a" r="1"/><circle id="Oval" cx="4" cy="36" fill="#393f4a" r="1"/><circle id="Oval" cx="54" cy="4" fill="#393f4a" r="1"/><circle id="Oval" cx="54" cy="36" fill="#393f4a" r="1"/><circle id="Oval" cx="36" cy="4" fill="#393f4a" r="1"/><circle id="Oval" cx="36" cy="36" fill="#393f4a" r="1"/><path id="Shape" d="m47 16v6h-4c-.5522847 0-1-.4477153-1-1v-4c0-.5522847.4477153-1 1-1z" fill="#3f5c6c"/><path id="Shape" d="m52 17v4c0 .5522847-.4477153 1-1 1h-4v-6h4c.5522847 0 1 .4477153 1 1z" fill="#35495e"/><path id="Shape" d="m48.7 34h-3.4c-.1975323.0000443-.3906531-.0584139-.555-.168l-2.3-1.535c-.2780697-.1855246-.44505-.4977215-.445-.832v-4.465c0-.5522847.4477153-1 1-1h8c.5522847 0 1 .4477153 1 1v4.465c.00005.3342785-.1669303.6464754-.445.832l-2.3 1.535c-.1643469.1095861-.3574677.1680443-.555.168z" fill="#2c3e50"/><path id="Shape" d="m45 13c-.4304304 0-.8125693-.2754301-.9486833-.6837722-.136114-.4083422.004339-.8579696.3486833-1.1162278l2.7-2.029-2.547-1.271c-.3124809-.15423351-.522138-.46001277-.5533742-.80708132-.0312361-.34706856.1204538-.68536905.4003742-.89291868l4-3c.2858125-.21435935.6642734-.25995643.9928203-.11961524.3285469.14034118.5572656.44529946.6.8s-.1070078.70525589-.3928203.91961524l-2.7 2.029 2.552 1.276c.3124809.15423351.522138.46001277.5533742.80708132.0312361.34706856-.1204538.68536905-.4003742.89291868l-4 3c-.1750908.1290705-.3874923.1975305-.605.195z" fill="#f0c419"/><circle id="Oval" cx="45" cy="29" fill="#f3d55b" r="1"/><circle id="Oval" cx="49" cy="29" fill="#f3d55b" r="1"/><path id="Shape" d="m46 56h-22c-.5522847 0-1-.4477153-1-1s.4477153-1 1-1h22c1.1045695 0 2-.8954305 2-2s-.8954305-2-2-2h-36c-2.209139 0-4-1.790861-4-4v-6c0-.5522847.44771525-1 1-1s1 .4477153 1 1v6c0 1.1045695.8954305 2 2 2h36c2.209139 0 4 1.790861 4 4s-1.790861 4-4 4z" fill="#3f5c6c"/><rect id="Rectangle-path" fill="#ff5364" height="4" rx="1" width="6" x="18" y="53"/><rect id="Rectangle-path" fill="#24ae5f" height="4" rx="1" transform="matrix(0 -1 1 0 0 110)" width="6" x="52" y="53"/></g></g></svg>