<svg height="512" viewBox="0 0 46 58" width="512" xmlns="http://www.w3.org/2000/svg"><g id="Page-1" fill="none" fill-rule="evenodd"><g id="001---SSD" fill-rule="nonzero"><rect id="Rectangle-path" fill="#9fc9d3" height="58" rx="4" width="46"/><g fill="#84b5cb"><path id="Shape" d="m13.333 6h24.334c1.1045695 0 2 .8954305 2 2v31c0 3.8659932-3.1340068 7-7 7h-24.334c-1.1045695 0-2-.8954305-2-2v-31c0-3.86599325 3.13400675-7 7-7z"/><circle id="Oval" cx="4" cy="4" r="2"/><circle id="Oval" cx="42" cy="4" r="2"/><circle id="Oval" cx="4" cy="49" r="2"/><circle id="Oval" cx="42" cy="49" r="2"/></g><circle id="Oval" cx="4" cy="4" fill="#547580" r="1"/><circle id="Oval" cx="42" cy="4" fill="#547580" r="1"/><circle id="Oval" cx="4" cy="49" fill="#547580" r="1"/><circle id="Oval" cx="42" cy="49" fill="#547580" r="1"/><path id="Shape" d="m38 52v6h-30v-6c.0032948-1.1032019.89679813-1.9967052 2-2h26c1.1032019.0032948 1.9967052.8967981 2 2z" fill="#35495e"/><path id="Shape" d="m13 54v4h-2v-4c0-.5522847.4477153-1 1-1s1 .4477153 1 1z" fill="#f29c1f"/><path id="Shape" d="m17 54v4h-2v-4c0-.5522847.4477153-1 1-1s1 .4477153 1 1z" fill="#f29c1f"/><path id="Shape" d="m21 54v4h-2v-4c0-.5522847.4477153-1 1-1s1 .4477153 1 1z" fill="#f29c1f"/><path id="Shape" d="m31 54v4h-2v-4c0-.5522847.4477153-1 1-1s1 .4477153 1 1z" fill="#f29c1f"/><path id="Shape" d="m35 54v4h-2v-4c0-.5522847.4477153-1 1-1s1 .4477153 1 1z" fill="#f29c1f"/><path id="Shape" d="m14 8h23c.5522847 0 1 .44771525 1 1v29c0 3.3137085-2.6862915 6-6 6h-23c-.55228475 0-1-.4477153-1-1v-29c0-3.3137085 2.6862915-6 6-6z" fill="#2980ba"/><path id="Rectangle-path" d="m25 8h6v36h-6z" fill="#b0d3f0"/></g></g></svg>